<svg width="22" height="24" viewBox="0 0 22 24" fill="none" xmlns="http://www.w3.org/2000/svg">
<path opacity="0.5" d="M1.0425 9C0.714375 9 0.48 9.28125 0.48 9.5625V21.75C0.48 23.0156 1.46437 24 2.73 24H19.23C20.4487 24 21.48 23.0156 21.48 21.75V9.5625C21.48 9.28125 21.1987 9 20.9175 9H1.0425ZM21.48 6.9375V5.25C21.48 4.03125 20.4487 3 19.23 3H16.98V0.5625C16.98 0.28125 16.6987 0 16.4175 0H14.5425C14.2144 0 13.98 0.28125 13.98 0.5625V3H7.98V0.5625C7.98 0.28125 7.69875 0 7.4175 0H5.5425C5.21437 0 4.98 0.28125 4.98 0.5625V3H2.73C1.46437 3 0.48 4.03125 0.48 5.25V6.9375C0.48 7.26562 0.714375 7.5 1.0425 7.5H20.9175C21.1987 7.5 21.48 7.26562 21.48 6.9375Z" fill="#23242A"/>
</svg>
